<?xml version="1.0" standalone="no"?>
<!DOCTYPE svg PUBLIC "-//W3C//DTD SVG 20010904//EN"
 "http://www.w3.org/TR/2001/REC-SVG-20010904/DTD/svg10.dtd">
<svg version="1.0" xmlns="http://www.w3.org/2000/svg"
 width="14.000000pt" height="19.000000pt" viewBox="0 0 14.000000 19.000000"
 preserveAspectRatio="xMidYMid meet">

<g transform="translate(0.000000,19.000000) scale(0.100000,-0.100000)"
fill="#000000" stroke="none">
<path d="M32 174 c-33 -23 -31 -88 3 -110 30 -20 32 -34 6 -34 -11 0 -23 -4
-26 -10 -4 -6 17 -10 55 -10 38 0 59 4 55 10 -3 5 -15 10 -26 10 -26 0 -24 14
6 34 50 33 24 126 -35 126 -9 0 -26 -7 -38 -16z m76 -16 c15 -15 15 -61 0 -76
-15 -15 -61 -15 -76 0 -15 15 -15 61 0 76 15 15 61 15 76 0z"/>
<path d="M60 120 c0 -5 5 -10 10 -10 6 0 10 5 10 10 0 6 -4 10 -10 10 -5 0
-10 -4 -10 -10z"/>
</g>
</svg>
